HIERARCHY
ROOT joint_Root
{
	OFFSET 0.0 0.0 0.0
	CHANNELS 6 Xposition Yposition Zposition Zrotation Xrotation Yrotation 
	JOINT Hips
	{
		OFFSET 4.5925 91.4895 -427.239
		CHANNELS 6 Xposition Yposition Zposition Zrotation Xrotation Yrotation 
		JOINT Spine
		{
			OFFSET 15.7357 0.0 0.0
			CHANNELS 6 Xposition Yposition Zposition Zrotation Xrotation Yrotation 
			JOINT Chest
			{
				OFFSET 8.98455 -0.406207 0.0
				CHANNELS 6 Xposition Yposition Zposition Zrotation Xrotation Yrotation 
				JOINT Neck
				{
					OFFSET 16.3773 0.0 0.0
					CHANNELS 6 Xposition Yposition Zposition Zrotation Xrotation Yrotation 
					JOINT Head
					{
						OFFSET 6.45672 0.0 0.0
						CHANNELS 6 Xposition Yposition Zposition Zrotation Xrotation Yrotation 
						End Site
						{
							OFFSET 0.0 0.0 0.0
						}
					}
				}
				JOINT Shoulder_L
				{
					OFFSET 12.9942 -0.242716 4.98039
					CHANNELS 6 Xposition Yposition Zposition Zrotation Xrotation Yrotation 
					JOINT UpperArm_L
					{
						OFFSET 5.34809 0.0 0.0
						CHANNELS 6 Xposition Yposition Zposition Zrotation Xrotation Yrotation 
						JOINT LowerArm_L
						{
							OFFSET 24.3286 1.87007e-05 0.0
							CHANNELS 6 Xposition Yposition Zposition Zrotation Xrotation Yrotation 
							JOINT Hand_L
							{
								OFFSET 22.2916 0.0 0.0
								CHANNELS 6 Xposition Yposition Zposition Zrotation Xrotation Yrotation 
								End Site
								{
									OFFSET 0.0 0.0 0.0
								}
							}
						}
					}
				}
				JOINT Shoulder_R
				{
					OFFSET 12.9945 -0.242716 -4.98039
					CHANNELS 6 Xposition Yposition Zposition Zrotation Xrotation Yrotation 
					JOINT UpperArm_R
					{
						OFFSET -5.34813 0.0 0.0
						CHANNELS 6 Xposition Yposition Zposition Zrotation Xrotation Yrotation 
						JOINT LowerArm_R
						{
							OFFSET -24.3289 0.000322201 0.0
							CHANNELS 6 Xposition Yposition Zposition Zrotation Xrotation Yrotation 
							JOINT Hand_R
							{
								OFFSET -22.2915 -0.000108084 0.0
								CHANNELS 6 Xposition Yposition Zposition Zrotation Xrotation Yrotation 
								End Site
								{
									OFFSET 0.0 0.0 0.0
								}
							}
						}
					}
				}
			}
		}
		JOINT UpperLeg_L
		{
			OFFSET -2.19248 -6.46944 0.0
			CHANNELS 6 Xposition Yposition Zposition Zrotation Xrotation Yrotation 
			JOINT LowerLeg_L
			{
				OFFSET 39.0811 0.0 -1.23785e-05
				CHANNELS 6 Xposition Yposition Zposition Zrotation Xrotation Yrotation 
				JOINT Foot_L
				{
					OFFSET 40.9854 0.0 -1.26872e-05
					CHANNELS 6 Xposition Yposition Zposition Zrotation Xrotation Yrotation 
					JOINT Toes_L
					{
						OFFSET 11.7543 0.0 0.0
						CHANNELS 6 Xposition Yposition Zposition Zrotation Xrotation Yrotation 
						End Site
						{
							OFFSET 0.0 0.0 0.0
						}
					}
				}
			}
		}
		JOINT UpperLeg_R
		{
			OFFSET -2.19251 6.46944 0.0
			CHANNELS 6 Xposition Yposition Zposition Zrotation Xrotation Yrotation 
			JOINT LowerLeg_R
			{
				OFFSET -39.0811 -0.00228153 -0.0401928
				CHANNELS 6 Xposition Yposition Zposition Zrotation Xrotation Yrotation 
				JOINT Foot_R
				{
					OFFSET -40.9854 0.0 0.0
					CHANNELS 6 Xposition Yposition Zposition Zrotation Xrotation Yrotation 
					JOINT Toes_R
					{
						OFFSET -11.7543 0.0 0.0
						CHANNELS 6 Xposition Yposition Zposition Zrotation Xrotation Yrotation 
						End Site
						{
							OFFSET 0.0 0.0 0.0
						}
					}
				}
			}
		}
	}
}
MOTION
Frames:	6
Frame Time:	0.0333333
0.000000 0.000000 0.000000 0.000000 0.000000 -0.000000 3.217820 87.537800 545.370000 -89.430800 -9.690530 176.023000 15.735700 0.000005 -0.000001 66.988600 82.751800 -65.489700 8.984550 -0.406207 -0.000000 5.674950 -5.680540 3.278000 16.377300 -0.000001 -0.000001 -1.646160 -5.610090 1.738370 6.456720 -0.000001 -0.000000 -7.628970 -5.013320 3.097460 12.994200 -0.242716 4.980390 -90.771100 2.394640 -72.148200 5.348090 -0.000007 -0.000001 -56.854300 43.095600 -39.634100 24.328600 0.000019 0.000005 6.541130 -0.118132 -91.016100 22.291600 -0.000001 0.000005 18.063700 5.445620 -4.488000 12.994500 -0.242716 -4.980390 88.820900 5.962950 -78.793700 -5.348130 -0.000001 -0.000004 -72.000600 31.889600 28.419200 -24.328900 0.000322 -0.000009 -26.404100 -4.561450 -80.897900 -22.291500 -0.000108 -0.000004 30.772300 5.668720 -17.172600 -2.192480 -6.469440 -0.000000 -174.386000 -0.128932 0.940744 39.081100 -0.000007 -0.000012 -0.281557 0.562332 26.597500 40.985400 -0.000006 -0.000013 -1.481030 4.990820 -82.168100 11.754300 -0.000000 0.000003 -0.000758 -0.011907 -17.061100 -2.192510 6.469440 -0.000001 -178.360000 19.554100 156.766000 -39.081100 -0.002282 -0.040193 0.091217 -0.071424 50.927300 -40.985400 0.000008 0.000006 5.942380 -1.393820 -73.240700 -11.754300 -0.000006 -0.000006 -0.023230 -0.184565 -24.120400
0.000000 0.000000 0.000000 0.000000 0.000000 -0.000000 3.596120 86.653700 543.258000 -88.832600 -7.593180 176.338000 15.735700 0.000005 -0.000001 75.514900 83.526000 -73.629700 8.984550 -0.406207 -0.000000 4.833600 -3.280710 3.905520 16.377300 -0.000001 -0.000001 -0.587138 -5.478080 1.027580 6.456720 -0.000001 -0.000000 -6.334380 -6.520370 2.474370 12.994200 -0.242716 4.980390 -91.125800 3.344620 -71.385300 5.348090 -0.000007 -0.000001 -60.027200 44.576700 -30.898200 24.328600 0.000019 0.000005 4.889020 1.609880 -71.795800 22.291600 -0.000001 0.000005 18.267100 5.444820 -4.463090 12.994500 -0.242716 -4.980390 88.031000 9.479030 -78.209600 -5.348130 -0.000001 -0.000004 -67.820800 35.336900 17.739000 -24.328900 0.000322 -0.000009 -26.371100 -2.657780 -84.657300 -22.291500 -0.000108 -0.000004 32.272100 5.670430 -17.443300 -2.192480 -6.469440 -0.000000 -174.950000 1.734500 -0.657945 39.081100 -0.000007 -0.000012 -0.002704 0.004085 33.516000 40.985400 -0.000006 -0.000013 0.748480 0.101166 -83.117900 11.754300 -0.000000 0.000003 -0.005039 -0.061846 -19.093200 -2.192510 6.469440 -0.000001 -178.372000 20.441800 162.160000 -39.081100 -0.002282 -0.040193 0.060143 -0.054150 46.409700 -40.985400 0.000008 0.000006 5.836560 0.847767 -81.762300 -11.754300 -0.000006 -0.000006 -0.003904 -0.050439 -18.624800
0.000000 0.000000 0.000000 0.000000 0.000000 -0.000000 3.883090 86.494900 541.326000 -87.951600 -3.162150 177.735000 15.735700 0.000005 -0.000001 88.675600 83.474900 -86.282400 8.984550 -0.406207 -0.000000 5.292720 -0.352501 4.797400 16.377300 -0.000001 -0.000001 0.097619 -4.546120 0.567667 6.456720 -0.000001 -0.000000 -6.094720 -5.988350 0.340845 12.994200 -0.242716 4.980390 -91.509100 4.421190 -71.133100 5.348090 -0.000007 -0.000001 -60.981800 44.908600 -22.817700 24.328600 0.000019 0.000005 6.955280 5.555180 -51.674800 22.291600 -0.000001 0.000005 14.622300 5.472420 -5.461130 12.994500 -0.242716 -4.980390 87.506800 12.242400 -78.394400 -5.348130 -0.000001 -0.000004 -60.188900 39.348600 0.730938 -24.328900 0.000322 -0.000009 -24.113000 0.165614 -90.372000 -22.291500 -0.000108 -0.000004 32.596300 5.670550 -17.463300 -2.192480 -6.469440 -0.000000 -174.560000 -0.645961 -5.353440 39.081100 -0.000007 -0.000012 0.007122 -0.006642 46.982900 40.985400 -0.000006 -0.000013 -0.188570 -1.191320 -76.362200 11.754300 -0.000000 0.000003 -0.062247 -0.339021 -30.586000 -2.192510 6.469440 -0.000001 -178.127000 14.617300 165.139000 -39.081100 -0.002282 -0.040193 0.046843 -0.042489 45.726500 -40.985400 0.000008 0.000006 4.791860 0.017903 -82.255200 -11.754300 -0.000006 -0.000006 -0.026256 -0.063465 -18.050800
0.000000 0.000000 0.000000 0.000000 0.000000 -0.000000 4.019270 86.871600 539.391000 -88.256400 0.500182 -179.906000 15.735700 0.000005 -0.000001 91.133700 82.555800 -88.796000 8.984550 -0.406207 -0.000000 7.118150 0.280413 4.652830 16.377300 -0.000001 -0.000001 0.335741 -2.874740 0.893542 6.456720 -0.000001 -0.000000 -6.559970 -3.353790 -1.538540 12.994200 -0.242716 4.980390 -91.546800 4.614230 -71.444600 5.348090 -0.000007 -0.000001 -62.820200 44.421000 -8.669340 24.328600 0.000019 0.000005 12.599000 12.322800 -46.322700 22.291600 -0.000001 0.000005 14.770000 5.464660 -5.171590 12.994500 -0.242716 -4.980390 87.760700 12.734300 -79.941500 -5.348130 -0.000001 -0.000004 -51.580200 41.747000 -21.811600 -24.328900 0.000322 -0.000009 -19.977100 2.523010 -96.923200 -22.291500 -0.000108 -0.000004 31.619100 5.671610 -17.682800 -2.192480 -6.469440 -0.000000 -175.345000 -3.291390 -11.673100 39.081100 -0.000007 -0.000012 0.049939 -0.027775 60.913300 40.985400 -0.000006 -0.000013 2.681150 -2.377790 -61.215800 11.754300 -0.000000 0.000003 -0.094101 -0.429692 -34.483000 -2.192510 6.469440 -0.000001 -179.507000 12.184100 170.260000 -39.081100 -0.002282 -0.040193 0.036960 -0.035970 43.125900 -40.985400 0.000008 0.000006 5.056560 1.318140 -82.455100 -11.754300 -0.000006 -0.000006 -0.002925 -0.039753 -18.189800
0.000000 0.000000 0.000000 0.000000 0.000000 -0.000000 4.113440 87.279400 537.752000 -88.715800 2.247450 -179.802000 15.735700 0.000005 -0.000001 92.098000 82.480800 -90.074700 8.984550 -0.406207 -0.000000 7.256240 0.539605 4.008050 16.377300 -0.000001 -0.000001 0.238556 -2.346880 1.553040 6.456720 -0.000001 -0.000000 -7.007730 -2.477860 -1.505740 12.994200 -0.242716 4.980390 -91.110500 3.181380 -70.741200 5.348090 -0.000007 -0.000001 -64.782400 48.703700 5.807840 24.328600 0.000019 0.000005 8.849780 7.904380 -48.566200 22.291600 -0.000001 0.000005 13.272100 5.492280 -6.229950 12.994500 -0.242716 -4.980390 88.405200 10.036500 -80.924600 -5.348130 -0.000001 -0.000004 -49.985300 40.169100 -39.130900 -24.328900 0.000322 -0.000009 -10.715700 2.866790 -104.857000 -22.291500 -0.000108 -0.000004 28.366500 5.671900 -17.676600 -2.192480 -6.469440 -0.000000 -176.510000 -3.941520 -20.764900 39.081100 -0.000007 -0.000012 0.064787 -0.020948 72.076900 40.985400 -0.000006 -0.000013 5.199930 -3.826150 -50.132200 11.754300 -0.000000 0.000003 -0.003291 -0.043857 -18.360500 -2.192510 6.469440 -0.000001 179.449000 11.982500 172.940000 -39.081100 -0.002282 -0.040193 0.029455 -0.030816 40.346300 -40.985400 0.000008 0.000006 5.360630 2.990250 -82.407000 -11.754300 -0.000006 -0.000006 -0.002655 -0.036636 -18.063000
0.000000 0.000000 0.000000 0.000000 0.000000 -0.000000 3.855780 88.160900 535.750000 -89.633300 5.209000 179.522000 15.735700 0.000005 -0.000001 103.344000 82.761000 -102.111000 8.984550 -0.406207 -0.000000 6.294750 3.316050 2.281530 16.377300 -0.000001 -0.000001 0.816344 -3.151110 2.431960 6.456720 -0.000001 -0.000000 -7.138960 -4.545640 -0.377090 12.994200 -0.242716 4.980390 -90.127600 0.352916 -70.052700 5.348090 -0.000007 -0.000001 -68.907200 54.141600 18.925200 24.328600 0.000019 0.000005 7.810570 5.823030 -53.503800 22.291600 -0.000001 0.000005 11.701600 5.506410 -6.803140 12.994500 -0.242716 -4.980390 89.078700 5.781250 -80.930500 -5.348130 -0.000001 -0.000004 -53.903500 37.475900 -48.082200 -24.328900 0.000322 -0.000009 -6.188650 2.704880 -113.504000 -22.291500 -0.000108 -0.000004 28.265300 5.664800 -16.658200 -2.192480 -6.469440 -0.000000 -178.456000 -5.744220 -26.780500 39.081100 -0.000007 -0.000012 0.082094 -0.019033 76.942200 40.985400 -0.000006 -0.000013 6.161280 -6.270760 -54.977200 11.754300 -0.000000 0.000003 -0.005172 -0.063126 -19.145400 -2.192510 6.469440 -0.000001 177.507000 11.504800 175.389000 -39.081100 -0.002282 -0.040193 0.010797 -0.010312 36.062200 -40.985400 0.000008 0.000006 5.352280 5.988360 -80.617000 -11.754300 -0.000006 -0.000006 -0.099744 -0.155926 -18.482800
